<svg width="220" height="59" viewBox="0 0 220 59" fill="none" xmlns="http://www.w3.org/2000/svg">
<path d="M7.2 23.24C5.808 23.24 4.656 22.992 3.744 22.496C2.848 21.984 2.176 21.104 1.728 19.856C1.296 18.592 1.08 16.84 1.08 14.6C1.08 12.36 1.288 10.616 1.704 9.368C2.136 8.104 2.768 7.224 3.6 6.728C4.448 6.216 5.488 5.96 6.72 5.96C7.568 5.96 8.328 6.008 9 6.104C9.688 6.2 10.208 6.312 10.56 6.44V7.76H7.44C6.768 7.76 6.168 7.96 5.64 8.36C5.112 8.744 4.696 9.432 4.392 10.424C4.104 11.4 3.96 12.792 3.96 14.6C3.96 16.392 4.112 17.784 4.416 18.776C4.72 19.768 5.152 20.464 5.712 20.864C6.272 21.248 6.928 21.44 7.68 21.44H8.28V13.88H11.16V22.76C10.808 22.872 10.28 22.976 9.576 23.072C8.888 23.184 8.096 23.24 7.2 23.24ZM24.3694 23.24C23.3294 23.24 22.4494 23.04 21.7294 22.64C21.0254 22.224 20.4894 21.56 20.1214 20.648C19.7534 19.736 19.5694 18.52 19.5694 17C19.5694 15.48 19.7534 14.264 20.1214 13.352C20.4894 12.44 21.0254 11.784 21.7294 11.384C22.4494 10.968 23.3294 10.76 24.3694 10.76C25.4094 10.76 26.2814 10.968 26.9854 11.384C27.7054 11.784 28.2494 12.44 28.6174 13.352C28.9854 14.264 29.1694 15.48 29.1694 17C29.1694 18.52 28.9854 19.736 28.6174 20.648C28.2494 21.56 27.7054 22.224 26.9854 22.64C26.2814 23.04 25.4094 23.24 24.3694 23.24ZM24.3694 21.68C24.7374 21.68 25.0654 21.552 25.3534 21.296C25.6414 21.024 25.8654 20.552 26.0254 19.88C26.2014 19.192 26.2894 18.232 26.2894 17C26.2894 15.752 26.2014 14.792 26.0254 14.12C25.8654 13.448 25.6414 12.984 25.3534 12.728C25.0654 12.456 24.7374 12.32 24.3694 12.32C24.0174 12.32 23.6894 12.456 23.3854 12.728C23.0974 12.984 22.8654 13.448 22.6894 14.12C22.5294 14.792 22.4494 15.752 22.4494 17C22.4494 18.232 22.5294 19.192 22.6894 19.88C22.8654 20.552 23.0974 21.024 23.3854 21.296C23.6894 21.552 24.0174 21.68 24.3694 21.68ZM37.8206 23V6.2H40.7006V23H37.8206ZM53.415 23.24C52.615 23.24 51.903 23.04 51.279 22.64C50.671 22.224 50.191 21.56 49.839 20.648C49.503 19.736 49.335 18.52 49.335 17C49.335 15.48 49.511 14.264 49.863 13.352C50.215 12.44 50.711 11.784 51.351 11.384C52.007 10.968 52.775 10.76 53.655 10.76C54.071 10.76 54.447 10.816 54.783 10.928C55.135 11.04 55.439 11.184 55.695 11.36V6.2H58.575V23H56.535L56.175 22.28H56.055C55.799 22.52 55.455 22.744 55.023 22.952C54.607 23.144 54.071 23.24 53.415 23.24ZM54.375 21.56C54.679 21.56 54.927 21.512 55.119 21.416C55.327 21.304 55.519 21.192 55.695 21.08V12.92C55.583 12.792 55.407 12.68 55.167 12.584C54.943 12.488 54.679 12.44 54.375 12.44C53.975 12.44 53.607 12.568 53.271 12.824C52.951 13.08 52.695 13.544 52.503 14.216C52.311 14.872 52.215 15.8 52.215 17C52.215 18.2 52.311 19.128 52.503 19.784C52.695 20.44 52.951 20.904 53.271 21.176C53.607 21.432 53.975 21.56 54.375 21.56ZM72.6178 23.24C71.3858 23.24 70.3698 23.04 69.5698 22.64C68.7698 22.224 68.1778 21.56 67.7938 20.648C67.4098 19.736 67.2178 18.52 67.2178 17C67.2178 15.48 67.3938 14.264 67.7458 13.352C68.1138 12.44 68.6338 11.784 69.3058 11.384C69.9938 10.968 70.8178 10.76 71.7778 10.76C72.7378 10.76 73.5538 10.968 74.2258 11.384C74.9138 11.784 75.4338 12.44 75.7858 13.352C76.1538 14.264 76.3378 15.48 76.3378 17V17.84H70.0978C70.0978 19.216 70.3378 20.184 70.8178 20.744C71.3138 21.288 72.0738 21.56 73.0978 21.56H75.7378V22.76C75.3858 22.872 74.9298 22.976 74.3698 23.072C73.8098 23.184 73.2258 23.24 72.6178 23.24ZM70.0978 16.16H73.4578C73.4578 15.12 73.3858 14.328 73.2418 13.784C73.0978 13.224 72.8978 12.84 72.6418 12.632C72.3858 12.424 72.0978 12.32 71.7778 12.32C71.4578 12.32 71.1698 12.424 70.9138 12.632C70.6578 12.84 70.4578 13.224 70.3138 13.784C70.1698 14.328 70.0978 15.12 70.0978 16.16ZM84.8569 23V11H86.8969L87.2569 11.72H87.3769C87.6329 11.48 87.9769 11.264 88.4089 11.072C88.8409 10.864 89.4169 10.76 90.1369 10.76C90.8249 10.76 91.4489 10.864 92.0089 11.072C92.5689 11.28 93.0169 11.664 93.3529 12.224C93.6889 12.768 93.8569 13.56 93.8569 14.6V23H90.9769V14.6C90.9769 13.752 90.7769 13.184 90.3769 12.896C89.9769 12.592 89.5369 12.44 89.0569 12.44C88.7529 12.44 88.4889 12.488 88.2649 12.584C88.0409 12.68 87.8649 12.792 87.7369 12.92V23H84.8569ZM118.094 23.24C117.262 23.24 116.502 23.184 115.814 23.072C115.142 22.976 114.622 22.872 114.254 22.76V21.44H117.614C118.814 21.44 119.67 21.208 120.182 20.744C120.71 20.264 120.974 19.576 120.974 18.68C120.974 18.024 120.806 17.496 120.47 17.096C120.15 16.696 119.726 16.36 119.198 16.088C118.686 15.816 118.134 15.552 117.542 15.296C116.966 15.024 116.414 14.696 115.886 14.312C115.374 13.912 114.95 13.4 114.614 12.776C114.294 12.136 114.134 11.304 114.134 10.28C114.134 8.952 114.55 7.904 115.382 7.136C116.214 6.352 117.438 5.96 119.054 5.96C119.902 5.96 120.662 6.008 121.334 6.104C122.022 6.2 122.542 6.312 122.894 6.44V7.76H119.534C118.75 7.76 118.134 7.984 117.686 8.432C117.238 8.88 117.014 9.496 117.014 10.28C117.014 10.984 117.174 11.552 117.494 11.984C117.83 12.4 118.254 12.752 118.766 13.04C119.294 13.312 119.846 13.584 120.422 13.856C121.014 14.112 121.566 14.432 122.078 14.816C122.606 15.2 123.03 15.696 123.35 16.304C123.686 16.912 123.854 17.704 123.854 18.68C123.854 20.12 123.406 21.24 122.51 22.04C121.614 22.84 120.142 23.24 118.094 23.24ZM132.25 23V6.2H135.13V11.48C135.434 11.24 135.786 11.064 136.186 10.952C136.602 10.824 137.05 10.76 137.53 10.76C138.218 10.76 138.842 10.864 139.402 11.072C139.962 11.28 140.41 11.664 140.746 12.224C141.082 12.768 141.25 13.56 141.25 14.6V23H138.37V14.6C138.37 13.752 138.17 13.184 137.77 12.896C137.37 12.592 136.93 12.44 136.45 12.44C136.146 12.44 135.882 12.488 135.658 12.584C135.434 12.68 135.258 12.792 135.13 12.92V23H132.25ZM154.565 23.24C153.525 23.24 152.645 23.04 151.925 22.64C151.221 22.224 150.685 21.56 150.317 20.648C149.949 19.736 149.765 18.52 149.765 17C149.765 15.48 149.949 14.264 150.317 13.352C150.685 12.44 151.221 11.784 151.925 11.384C152.645 10.968 153.525 10.76 154.565 10.76C155.605 10.76 156.477 10.968 157.181 11.384C157.901 11.784 158.445 12.44 158.813 13.352C159.181 14.264 159.365 15.48 159.365 17C159.365 18.52 159.181 19.736 158.813 20.648C158.445 21.56 157.901 22.224 157.181 22.64C156.477 23.04 155.605 23.24 154.565 23.24ZM154.565 21.68C154.933 21.68 155.261 21.552 155.549 21.296C155.837 21.024 156.061 20.552 156.221 19.88C156.397 19.192 156.485 18.232 156.485 17C156.485 15.752 156.397 14.792 156.221 14.12C156.061 13.448 155.837 12.984 155.549 12.728C155.261 12.456 154.933 12.32 154.565 12.32C154.213 12.32 153.885 12.456 153.581 12.728C153.293 12.984 153.061 13.448 152.885 14.12C152.725 14.792 152.645 15.752 152.645 17C152.645 18.232 152.725 19.192 152.885 19.88C153.061 20.552 153.293 21.024 153.581 21.296C153.885 21.552 154.213 21.68 154.565 21.68ZM172.696 23.24C171.464 23.24 170.448 23.04 169.648 22.64C168.848 22.224 168.256 21.56 167.872 20.648C167.488 19.736 167.296 18.52 167.296 17C167.296 15.48 167.472 14.264 167.824 13.352C168.192 12.44 168.712 11.784 169.384 11.384C170.072 10.968 170.896 10.76 171.856 10.76C172.816 10.76 173.632 10.968 174.304 11.384C174.992 11.784 175.512 12.44 175.864 13.352C176.232 14.264 176.416 15.48 176.416 17V17.84H170.176C170.176 19.216 170.416 20.184 170.896 20.744C171.392 21.288 172.152 21.56 173.176 21.56H175.816V22.76C175.464 22.872 175.008 22.976 174.448 23.072C173.888 23.184 173.304 23.24 172.696 23.24ZM170.176 16.16H173.536C173.536 15.12 173.464 14.328 173.32 13.784C173.176 13.224 172.976 12.84 172.72 12.632C172.464 12.424 172.176 12.32 171.856 12.32C171.536 12.32 171.248 12.424 170.992 12.632C170.736 12.84 170.536 13.224 170.392 13.784C170.248 14.328 170.176 15.12 170.176 16.16ZM187.455 23.24C186.863 23.24 186.287 23.184 185.727 23.072C185.167 22.976 184.703 22.872 184.335 22.76V21.56H186.975C187.871 21.56 188.551 21.432 189.015 21.176C189.495 20.904 189.735 20.472 189.735 19.88C189.735 19.464 189.599 19.128 189.327 18.872C189.055 18.6 188.703 18.368 188.271 18.176C187.855 17.984 187.399 17.792 186.903 17.6C186.423 17.392 185.967 17.152 185.535 16.88C185.119 16.592 184.775 16.232 184.503 15.8C184.231 15.352 184.095 14.792 184.095 14.12C184.095 12.792 184.495 11.904 185.295 11.456C186.111 10.992 187.271 10.76 188.775 10.76C189.383 10.76 189.967 10.808 190.527 10.904C191.087 11 191.543 11.112 191.895 11.24V12.44H189.255C188.599 12.44 188.055 12.56 187.623 12.8C187.191 13.04 186.975 13.4 186.975 13.88C186.975 14.296 187.111 14.64 187.383 14.912C187.655 15.168 187.999 15.392 188.415 15.584C188.847 15.776 189.303 15.976 189.783 16.184C190.279 16.376 190.735 16.616 191.151 16.904C191.583 17.176 191.935 17.528 192.207 17.96C192.479 18.392 192.615 18.952 192.615 19.64C192.615 20.6 192.423 21.344 192.039 21.872C191.671 22.384 191.103 22.744 190.335 22.952C189.583 23.144 188.623 23.24 187.455 23.24Z" fill="black"/>
<path d="M66.4091 50V38.3636H67.8182V48.75H73.2273V50H66.4091ZM82.7727 50.1818C81.9848 50.1818 81.2936 49.9943 80.6989 49.6193C80.108 49.2443 79.6458 48.7197 79.3125 48.0455C78.983 47.3712 78.8182 46.5833 78.8182 45.6818C78.8182 44.7727 78.983 43.9792 79.3125 43.3011C79.6458 42.6231 80.108 42.0966 80.6989 41.7216C81.2936 41.3466 81.9848 41.1591 82.7727 41.1591C83.5606 41.1591 84.25 41.3466 84.8409 41.7216C85.4356 42.0966 85.8977 42.6231 86.2273 43.3011C86.5606 43.9792 86.7273 44.7727 86.7273 45.6818C86.7273 46.5833 86.5606 47.3712 86.2273 48.0455C85.8977 48.7197 85.4356 49.2443 84.8409 49.6193C84.25 49.9943 83.5606 50.1818 82.7727 50.1818ZM82.7727 48.9773C83.3712 48.9773 83.8636 48.8239 84.25 48.517C84.6364 48.2102 84.9223 47.8068 85.108 47.3068C85.2936 46.8068 85.3864 46.2652 85.3864 45.6818C85.3864 45.0985 85.2936 44.5549 85.108 44.0511C84.9223 43.5473 84.6364 43.1402 84.25 42.8295C83.8636 42.5189 83.3712 42.3636 82.7727 42.3636C82.1742 42.3636 81.6818 42.5189 81.2955 42.8295C80.9091 43.1402 80.6231 43.5473 80.4375 44.0511C80.2519 44.5549 80.1591 45.0985 80.1591 45.6818C80.1591 46.2652 80.2519 46.8068 80.4375 47.3068C80.6231 47.8068 80.9091 48.2102 81.2955 48.517C81.6818 48.8239 82.1742 48.9773 82.7727 48.9773ZM94.1151 44.75V50H92.7741V41.2727H94.0696V42.6364H94.1832C94.3878 42.1932 94.6984 41.8371 95.1151 41.5682C95.5317 41.2955 96.0696 41.1591 96.7287 41.1591C97.3196 41.1591 97.8366 41.2803 98.2798 41.5227C98.723 41.7614 99.0677 42.125 99.3139 42.6136C99.5601 43.0985 99.6832 43.7121 99.6832 44.4545V50H98.3423V44.5455C98.3423 43.8598 98.1643 43.3258 97.8082 42.9432C97.4522 42.5568 96.9635 42.3636 96.3423 42.3636C95.9143 42.3636 95.5317 42.4564 95.1946 42.642C94.8613 42.8277 94.598 43.0985 94.4048 43.4545C94.2116 43.8106 94.1151 44.2424 94.1151 44.75ZM109.429 50.1818C108.702 50.1818 108.06 49.9981 107.503 49.6307C106.946 49.2595 106.51 48.7367 106.196 48.0625C105.882 47.3845 105.724 46.5833 105.724 45.6591C105.724 44.7424 105.882 43.947 106.196 43.2727C106.51 42.5985 106.948 42.0777 107.509 41.7102C108.069 41.3428 108.717 41.1591 109.452 41.1591C110.02 41.1591 110.469 41.2538 110.798 41.4432C111.132 41.6288 111.385 41.8409 111.56 42.0795C111.738 42.3144 111.876 42.5076 111.974 42.6591H112.088V38.3636H113.429V50H112.134V48.6591H111.974C111.876 48.8182 111.736 49.0189 111.554 49.2614C111.372 49.5 111.113 49.714 110.776 49.9034C110.438 50.089 109.99 50.1818 109.429 50.1818ZM109.611 48.9773C110.149 48.9773 110.603 48.8371 110.974 48.5568C111.346 48.2727 111.628 47.8807 111.821 47.3807C112.014 46.8769 112.111 46.2955 112.111 45.6364C112.111 44.9848 112.016 44.4148 111.827 43.9261C111.637 43.4337 111.357 43.0511 110.986 42.7784C110.615 42.5019 110.156 42.3636 109.611 42.3636C109.043 42.3636 108.569 42.5095 108.19 42.8011C107.815 43.089 107.533 43.4811 107.344 43.9773C107.158 44.4697 107.065 45.0227 107.065 45.6364C107.065 46.2576 107.16 46.822 107.349 47.3295C107.543 47.8333 107.827 48.2348 108.202 48.5341C108.58 48.8295 109.05 48.9773 109.611 48.9773ZM123.616 50.1818C122.829 50.1818 122.137 49.9943 121.543 49.6193C120.952 49.2443 120.49 48.7197 120.156 48.0455C119.827 47.3712 119.662 46.5833 119.662 45.6818C119.662 44.7727 119.827 43.9792 120.156 43.3011C120.49 42.6231 120.952 42.0966 121.543 41.7216C122.137 41.3466 122.829 41.1591 123.616 41.1591C124.404 41.1591 125.094 41.3466 125.685 41.7216C126.279 42.0966 126.741 42.6231 127.071 43.3011C127.404 43.9792 127.571 44.7727 127.571 45.6818C127.571 46.5833 127.404 47.3712 127.071 48.0455C126.741 48.7197 126.279 49.2443 125.685 49.6193C125.094 49.9943 124.404 50.1818 123.616 50.1818ZM123.616 48.9773C124.215 48.9773 124.707 48.8239 125.094 48.517C125.48 48.2102 125.766 47.8068 125.952 47.3068C126.137 46.8068 126.23 46.2652 126.23 45.6818C126.23 45.0985 126.137 44.5549 125.952 44.0511C125.766 43.5473 125.48 43.1402 125.094 42.8295C124.707 42.5189 124.215 42.3636 123.616 42.3636C123.018 42.3636 122.526 42.5189 122.139 42.8295C121.753 43.1402 121.467 43.5473 121.281 44.0511C121.096 44.5549 121.003 45.0985 121.003 45.6818C121.003 46.2652 121.096 46.8068 121.281 47.3068C121.467 47.8068 121.753 48.2102 122.139 48.517C122.526 48.8239 123.018 48.9773 123.616 48.9773ZM134.959 44.75V50H133.618V41.2727H134.913V42.6364H135.027C135.232 42.1932 135.542 41.8371 135.959 41.5682C136.375 41.2955 136.913 41.1591 137.572 41.1591C138.163 41.1591 138.68 41.2803 139.124 41.5227C139.567 41.7614 139.911 42.125 140.158 42.6136C140.404 43.0985 140.527 43.7121 140.527 44.4545V50H139.186V44.5455C139.186 43.8598 139.008 43.3258 138.652 42.9432C138.296 42.5568 137.807 42.3636 137.186 42.3636C136.758 42.3636 136.375 42.4564 136.038 42.642C135.705 42.8277 135.442 43.0985 135.249 43.4545C135.055 43.8106 134.959 44.2424 134.959 44.75Z" fill="#171717"/>
</svg>
